<svg width="720" height="200" viewBox="0 0 720 200" fill="none" xmlns="http://www.w3.org/2000/svg">
  <rect width="720" height="200" fill="#0b2a52" />
  <defs>
    <linearGradient id="bg" x1="0" y1="0" x2="1" y2="1">
      <stop offset="0%" stop-color="#e8f3ff" />
      <stop offset="100%" stop-color="#cfe6ff" />
    </linearGradient>
    <linearGradient id="glow" x1="0" y1="0" x2="1" y2="1">
      <stop offset="0%" stop-color="#7cc6ff" />
      <stop offset="100%" stop-color="#2f81f7" />
    </linearGradient>
  </defs>
  <g transform="translate(20 20)">
    <circle cx="80" cy="80" r="80" fill="url(#bg)" />
    <circle cx="80" cy="80" r="62" fill="url(#glow)" opacity="0.18" />
    <g stroke="#f8fbff" stroke-width="6" stroke-linecap="round" stroke-linejoin="round">
      <line x1="80" y1="28" x2="80" y2="132" />
      <line x1="28" y1="80" x2="132" y2="80" />
      <line x1="40" y1="40" x2="120" y2="120" />
      <line x1="120" y1="40" x2="40" y2="120" />
    </g>
    <g stroke="#e6f4ff" stroke-width="5" stroke-linecap="round">
      <line x1="80" y1="28" x2="72" y2="38" />
      <line x1="80" y1="28" x2="88" y2="38" />
      <line x1="80" y1="132" x2="72" y2="122" />
      <line x1="80" y1="132" x2="88" y2="122" />

      <line x1="28" y1="80" x2="38" y2="72" />
      <line x1="28" y1="80" x2="38" y2="88" />
      <line x1="132" y1="80" x2="122" y2="72" />
      <line x1="132" y1="80" x2="122" y2="88" />

      <line x1="40" y1="40" x2="40" y2="56" />
      <line x1="40" y1="40" x2="56" y2="40" />
      <line x1="120" y1="120" x2="120" y2="104" />
      <line x1="120" y1="120" x2="104" y2="120" />

      <line x1="120" y1="40" x2="104" y2="40" />
      <line x1="120" y1="40" x2="120" y2="56" />
      <line x1="40" y1="120" x2="40" y2="104" />
      <line x1="40" y1="120" x2="56" y2="120" />
    </g>
    <circle cx="80" cy="80" r="10" fill="#f8fbff" />
  </g>
  <g transform="translate(210 60)">
    <text x="0" y="0" font-family="Inter, Segoe UI, Arial, sans-serif" font-size="56" font-weight="800" fill="#0f172a">
      Shovler
    </text>
    <text x="0" y="64" font-family="Inter, Segoe UI, Arial, sans-serif" font-size="28" font-weight="600" fill="#2563eb" letter-spacing="0.08em">
      INC.
    </text>
  </g>
</svg>
