<svg width="100" height="100" viewBox="0 0 100 100" fill="none" xmlns="http://www.w3.org/2000/svg">
	<defs>
		<linearGradient id="bg" x1="0" y1="0" x2="1" y2="1">
			<stop offset="0%" stop-color="#e8f3ff" />
			<stop offset="100%" stop-color="#cfe6ff" />
		</linearGradient>
		<linearGradient id="glow" x1="0" y1="0" x2="1" y2="1">
			<stop offset="0%" stop-color="#7cc6ff" />
			<stop offset="100%" stop-color="#2f81f7" />
		</linearGradient>
	</defs>
	<circle cx="50" cy="50" r="50" fill="url(#bg)" />
	<circle cx="50" cy="50" r="38" fill="url(#glow)" opacity="0.18" />
	<g stroke="#f8fbff" stroke-width="4" stroke-linecap="round" stroke-linejoin="round">
		<line x1="50" y1="18" x2="50" y2="82" />
		<line x1="18" y1="50" x2="82" y2="50" />
		<line x1="27" y1="27" x2="73" y2="73" />
		<line x1="73" y1="27" x2="27" y2="73" />
	</g>
	<g stroke="#e6f4ff" stroke-width="3" stroke-linecap="round">
		<line x1="50" y1="18" x2="44" y2="26" />
		<line x1="50" y1="18" x2="56" y2="26" />
		<line x1="50" y1="82" x2="44" y2="74" />
		<line x1="50" y1="82" x2="56" y2="74" />

		<line x1="18" y1="50" x2="26" y2="44" />
		<line x1="18" y1="50" x2="26" y2="56" />
		<line x1="82" y1="50" x2="74" y2="44" />
		<line x1="82" y1="50" x2="74" y2="56" />

		<line x1="27" y1="27" x2="27" y2="37" />
		<line x1="27" y1="27" x2="37" y2="27" />
		<line x1="73" y1="73" x2="73" y2="63" />
		<line x1="73" y1="73" x2="63" y2="73" />

		<line x1="73" y1="27" x2="63" y2="27" />
		<line x1="73" y1="27" x2="73" y2="37" />
		<line x1="27" y1="73" x2="27" y2="63" />
		<line x1="27" y1="73" x2="37" y2="73" />
	</g>
	<circle cx="50" cy="50" r="6" fill="#f8fbff" />
</svg>